# xmcd
#
# Track frame offsets:
#   150
#   15302
#   33539
#   48132
#   64976
#   81216
#   97516
#   117677
#   129756
#   147684
#   159883
#   186061
#
# Disc length: 2762 seconds
#
# Revision: 0
# Processed by: cddbd v1.5.2PL0 Copyright (c) Steve Scherf et al.
# Submitted via: GXTranscoder 2.0.1939
#
DISCID=930ac80c
DTITLE=FUNKYP - Get the Funk
DYEAR=2010
DGENRE=Blues
TTITLE0=Get The Funk
TTITLE1=Heaven is around the Corner
TTITLE2=Smile Baby
TTITLE3=Falling
TTITLE4=So Crazy
TTITLE5=Real Love
TTITLE6=Live by your side
TTITLE7=Daddy comes Home
TTITLE8=The Days of Pearly Spencer
TTITLE9=You are so beautiful
TTITLE10=Falling (remix)
TTITLE11=Live by your side (electro Remix)
EXTD=
EXTT0=
EXTT1=
EXTT2=
EXTT3=
EXTT4=
EXTT5=
EXTT6=
EXTT7=
EXTT8=
EXTT9=
EXTT10=
EXTT11=
PLAYORDER=
